<?xml version="1.0" encoding="UTF-8"?>
<svg width="4px" height="8px" viewBox="0 0 4 8" version="1.1" xmlns="http://www.w3.org/2000/svg" xmlns:xlink="http://www.w3.org/1999/xlink">
    <!-- Generator: Sketch 49 (51002) - http://www.bohemiancoding.com/sketch -->
    <title>Fill 1 Copy 19</title>
    <desc>Created with Sketch.</desc>
    <defs></defs>
    <g id="megamenu_mobile_v2" stroke="none" stroke-width="1" fill="#000000" fill-rule="evenodd">
        <g id="Mobile_Megamenu_products_old_category" transform="translate(-225.000000, -323.000000)" fill="#000000">
            <g id="Group-22" transform="translate(25.000000, 318.000000)">
                <g id="Group-4">
                    <path d="M202.336667,10.9124355 C202.304667,10.9311566 202.271333,10.9351683 202.238,10.9485406 C202.202,10.96325 202.167333,10.9792967 202.13,10.9873201 C202.086,10.9966806 202.044667,10.9966806 201.999333,10.9966806 C201.955333,10.9966806 201.912667,10.9966806 201.87,10.9873201 C201.831333,10.9792967 201.798,10.96325 201.762,10.9485406 C201.728667,10.9351683 201.694,10.9311566 201.663333,10.9124355 L198.336667,8.34095398 C198.018,8.14170762 197.908667,7.70176096 198.092667,7.35675719 C198.276667,7.01309065 198.684667,6.89407773 199.003333,7.09332409 L201.999333,9.40939586 L204.996667,7.09332409 C205.315333,6.89407773 205.723333,7.01309065 205.907333,7.35675719 C206.091333,7.70176096 205.982,8.14170762 205.663333,8.34095398 L202.336667,10.9124355 Z" id="Fill-1-Copy-19" transform="translate(202.000000, 8.996681) scale(1, -1) rotate(-90.000000) translate(-202.000000, -8.996681) "></path>
                </g>
            </g>
        </g>
    </g>
</svg>